<svg width="151" height="120" viewBox="0 0 151 120" fill="none" xmlns="http://www.w3.org/2000/svg">
<path d="M31.0596 58.3259C32.2807 55.8554 32.9713 53.7036 32.6022 53.5197C32.233 53.3358 30.9438 55.1895 29.7227 57.6601C28.5015 60.1306 27.8109 62.2824 28.18 62.4663C28.5492 62.6502 29.8384 60.7965 31.0596 58.3259Z" fill="#E0E0E0"/>
<path d="M93.0052 89.2084C94.2263 86.7379 95.0129 84.6338 94.7621 84.5089C94.5112 84.384 93.318 86.2855 92.0968 88.756C90.8757 91.2265 90.0891 93.3306 90.3399 93.4555C90.5907 93.5804 91.784 91.679 93.0052 89.2084Z" fill="#E0E0E0"/>
<path d="M51.4321 82.479L57.4493 75.1639L59.3659 76.7525L53.3487 84.0676L51.4321 82.479Z" fill="#F1A159" stroke="#E89041" stroke-width="0.5"/>
<path opacity="0.05" d="M54.4245 85.0346L57.6937 85.8062L59.9709 76.084L56.7017 75.3124L54.4245 85.0346Z" fill="black"/>
<path d="M59.6707 76.2699L57.5075 85.5054L55.0886 84.9344L57.2518 75.699L59.6707 76.2699Z" fill="#F1A159" stroke="#E89041" stroke-width="0.5"/>
<path d="M32.7127 53.296L28.0695 62.69L90.2346 93.6524L94.8778 84.2584L32.7127 53.296Z" fill="url(#paint0_linear)"/>
<path d="M32.9045 54.2289L94.0761 84.6965C94.0385 84.765 93.997 84.8408 93.9519 84.9237C93.7107 85.3668 93.3661 86.0101 92.9515 86.8133C92.1743 88.3185 91.1501 90.3864 90.0985 92.7497C87.3136 91.3703 72.8977 84.19 58.695 77.1138C50.9447 73.2524 43.2603 69.4232 37.5692 66.587L30.7683 63.1978L28.9409 62.287L28.9027 62.268C30.4642 59.8159 31.4919 57.7255 32.1377 56.2179C32.4812 55.4161 32.7166 54.7791 32.8669 54.34C32.8801 54.3014 32.8926 54.2644 32.9045 54.2289Z" fill="#F5F5F5" stroke="#DDDDDD"/>
<path opacity="0.05" d="M64.9101 69.6112L59.7854 67.0588L55.3633 76.0054L60.488 78.5579L64.9101 69.6112Z" fill="black"/>
<path d="M64.6874 69.5003L60.0083 67.1697L55.5862 76.1164L60.2653 78.4469L64.6874 69.5003Z" fill="#F1A159"/>
<path opacity="0.05" d="M63.7962 69.0564L60.6768 67.5027L56.2546 76.4493L59.374 78.003L63.7962 69.0564Z" fill="black"/>
<path d="M63.5733 68.9454L60.8995 67.6137L56.4774 76.5603L59.1512 77.892L63.5733 68.9454Z" fill="#F1A159"/>
<path d="M65.5335 91.5412C65.7625 91.5412 65.9482 91.3549 65.9482 91.1249C65.9482 90.895 65.7625 90.7087 65.5335 90.7087C65.3044 90.7087 65.1188 90.895 65.1188 91.1249C65.1188 91.3549 65.3044 91.5412 65.5335 91.5412Z" fill="#DBDBDB"/>
<path d="M75.4147 101.833C75.6437 101.833 75.8294 101.646 75.8294 101.416C75.8294 101.186 75.6437 101 75.4147 101C75.1857 101 75 101.186 75 101.416C75 101.646 75.1857 101.833 75.4147 101.833Z" fill="#DBDBDB"/>
<path d="M50.4335 94.3759C50.6626 94.3759 50.8482 94.1895 50.8482 93.9596C50.8482 93.7297 50.6626 93.5433 50.4335 93.5433C50.2045 93.5433 50.0188 93.7297 50.0188 93.9596C50.0188 94.1895 50.2045 94.3759 50.4335 94.3759Z" fill="#DBDBDB"/>
<g opacity="0.5">
<path opacity="0.5" d="M30.7653 85.7273H30.3401V88.1463H30.7653V85.7273Z" fill="#47E6B1"/>
<path opacity="0.5" d="M31.7576 87.1502V86.7233H29.3478V87.1502H31.7576Z" fill="#47E6B1"/>
</g>
<g opacity="0.5">
<path opacity="0.5" d="M79.4174 11H78.9922V13.419H79.4174V11Z" fill="#47E6B1"/>
<path opacity="0.5" d="M80.4098 12.4229V11.996H78.0001V12.4229H80.4098Z" fill="#47E6B1"/>
</g>
<g opacity="0.5">
<path opacity="0.5" d="M31.4174 33H30.9922V35.419H31.4174V33Z" fill="#47E6B1"/>
<path opacity="0.5" d="M32.4098 34.4229V33.996H30V34.4229H32.4098Z" fill="#47E6B1"/>
</g>
<g opacity="0.5">
<path opacity="0.5" d="M130.417 77H129.992V79.419H130.417V77Z" fill="#47E6B1"/>
<path opacity="0.5" d="M131.41 78.4229V77.996H129V78.4229H131.41Z" fill="#47E6B1"/>
</g>
<g opacity="0.5">
<path opacity="0.5" d="M112.417 20H111.992V22.419H112.417V20Z" fill="#47E6B1"/>
<path opacity="0.5" d="M113.41 21.4229V20.996H111V21.4229H113.41Z" fill="#47E6B1"/>
</g>
<path opacity="0.5" d="M27.9153 53.2075C27.7982 53.1563 27.7038 53.0636 27.6503 52.9471C27.5968 52.8305 27.5878 52.6983 27.6251 52.5756C27.6311 52.5568 27.6349 52.5373 27.6364 52.5176C27.6398 52.4614 27.6251 52.4055 27.5945 52.3584C27.5638 52.3112 27.5188 52.2752 27.4661 52.2557C27.4135 52.2362 27.356 52.2343 27.3021 52.2501C27.2483 52.266 27.201 52.2989 27.1672 52.3439C27.1556 52.3598 27.1459 52.3771 27.1383 52.3953C27.0872 52.513 26.9949 52.6077 26.8788 52.6614C26.7627 52.7151 26.631 52.7241 26.5088 52.6867C26.49 52.6806 26.4706 52.6768 26.451 52.6753C26.395 52.6719 26.3394 52.6867 26.2924 52.7174C26.2454 52.7482 26.2095 52.7934 26.1901 52.8463C26.1707 52.8991 26.1687 52.9568 26.1845 53.0109C26.2004 53.0649 26.2331 53.1124 26.2779 53.1463C26.2938 53.158 26.311 53.1677 26.3292 53.1754C26.4464 53.2266 26.5407 53.3193 26.5942 53.4358C26.6477 53.5523 26.6567 53.6845 26.6194 53.8073C26.6134 53.8261 26.6096 53.8456 26.6081 53.8653C26.6047 53.9215 26.6194 53.9773 26.6501 54.0245C26.6807 54.0717 26.7257 54.1077 26.7784 54.1272C26.831 54.1467 26.8886 54.1486 26.9424 54.1327C26.9962 54.1169 27.0436 54.084 27.0773 54.039C27.089 54.0231 27.0987 54.0058 27.1062 53.9875C27.1573 53.8699 27.2496 53.7752 27.3657 53.7215C27.4818 53.6678 27.6135 53.6588 27.7358 53.6962C27.7545 53.7023 27.7739 53.7061 27.7935 53.7076C27.8495 53.711 27.9052 53.6962 27.9522 53.6654C27.9992 53.6346 28.035 53.5895 28.0544 53.5366C28.0739 53.4838 28.0758 53.426 28.06 53.372C28.0442 53.3179 28.0114 53.2704 27.9666 53.2365C27.9507 53.2249 27.9335 53.2151 27.9153 53.2075Z" fill="#4D8AF0"/>
<path opacity="0.5" d="M137.741 53.968C137.624 53.9168 137.53 53.8241 137.476 53.7076C137.423 53.591 137.414 53.4588 137.451 53.3361C137.457 53.3173 137.461 53.2978 137.462 53.2781C137.466 53.2219 137.451 53.166 137.421 53.1189C137.39 53.0717 137.345 53.0357 137.292 53.0162C137.24 52.9967 137.182 52.9948 137.128 53.0106C137.074 53.0265 137.027 53.0594 136.993 53.1043C136.982 53.1203 136.972 53.1376 136.964 53.1558C136.913 53.2735 136.821 53.3682 136.705 53.4219C136.589 53.4756 136.457 53.4846 136.335 53.4472C136.316 53.4411 136.297 53.4373 136.277 53.4358C136.221 53.4324 136.165 53.4472 136.118 53.4779C136.071 53.5087 136.036 53.5539 136.016 53.6068C135.997 53.6596 135.995 53.7173 136.011 53.7714C136.026 53.8254 136.059 53.8729 136.104 53.9068C136.12 53.9185 136.137 53.9282 136.155 53.9359C136.272 53.9871 136.367 54.0798 136.42 54.1963C136.474 54.3128 136.483 54.445 136.445 54.5678C136.439 54.5866 136.436 54.6061 136.434 54.6258C136.431 54.682 136.445 54.7378 136.476 54.785C136.507 54.8322 136.552 54.8682 136.604 54.8877C136.657 54.9072 136.715 54.9091 136.768 54.8932C136.822 54.8774 136.87 54.8445 136.903 54.7995C136.915 54.7836 136.925 54.7663 136.932 54.748C136.983 54.6304 137.076 54.5357 137.192 54.482C137.308 54.4283 137.44 54.4193 137.562 54.4567C137.581 54.4628 137.6 54.4666 137.62 54.4681C137.676 54.4715 137.731 54.4567 137.778 54.4259C137.825 54.3951 137.861 54.35 137.88 54.2971C137.9 54.2443 137.902 54.1865 137.886 54.1325C137.87 54.0784 137.837 54.0309 137.793 53.997C137.777 53.9854 137.76 53.9756 137.741 53.968Z" fill="#4D8AF0"/>
<path opacity="0.5" d="M42.237 23.1735C42.062 23.0973 41.9212 22.9592 41.8413 22.7858C41.7614 22.6123 41.7481 22.4154 41.8037 22.2327C41.8127 22.2047 41.8184 22.1757 41.8206 22.1464C41.8257 22.0626 41.8037 21.9795 41.758 21.9093C41.7122 21.839 41.645 21.7854 41.5664 21.7564C41.4878 21.7274 41.402 21.7245 41.3216 21.7481C41.2412 21.7717 41.1706 21.8207 41.1201 21.8876C41.1028 21.9114 41.0883 21.9371 41.077 21.9643C41.0008 22.1394 40.8629 22.2804 40.6897 22.3604C40.5164 22.4404 40.3198 22.4538 40.1373 22.3981C40.1093 22.389 40.0803 22.3834 40.051 22.3811C39.9674 22.376 39.8844 22.398 39.8142 22.4439C39.7441 22.4897 39.6905 22.557 39.6615 22.6357C39.6326 22.7144 39.6296 22.8003 39.6533 22.8808C39.6769 22.9613 39.7257 23.032 39.7926 23.0825C39.8164 23.0998 39.8421 23.1143 39.8692 23.1257C40.0441 23.2019 40.1849 23.34 40.2648 23.5135C40.3447 23.6869 40.3581 23.8838 40.3024 24.0665C40.2934 24.0945 40.2878 24.1235 40.2855 24.1529C40.2804 24.2366 40.3024 24.3197 40.3482 24.3899C40.394 24.4602 40.4612 24.5138 40.5398 24.5428C40.6183 24.5718 40.7042 24.5747 40.7846 24.5511C40.865 24.5275 40.9356 24.4785 40.986 24.4116C41.0034 24.3878 41.0178 24.3621 41.0292 24.3349C41.1054 24.1598 41.2432 24.0188 41.4165 23.9388C41.5898 23.8588 41.7864 23.8454 41.9689 23.9011C41.9969 23.9102 42.0258 23.9158 42.0551 23.9181C42.1387 23.9232 42.2218 23.9012 42.2919 23.8553C42.3621 23.8095 42.4156 23.7422 42.4446 23.6635C42.4736 23.5848 42.4765 23.4989 42.4529 23.4184C42.4293 23.338 42.3804 23.2672 42.3135 23.2167C42.2898 23.1994 42.2641 23.1849 42.237 23.1735Z" fill="#4D8AF0"/>
<path opacity="0.5" d="M129.062 63.8035C128.887 63.7272 128.746 63.5892 128.666 63.4157C128.587 63.2422 128.573 63.0454 128.629 62.8626C128.638 62.8346 128.643 62.8056 128.646 62.7763C128.651 62.6926 128.629 62.6094 128.583 62.5392C128.537 62.469 128.47 62.4154 128.391 62.3863C128.313 62.3573 128.227 62.3544 128.147 62.378C128.066 62.4017 127.996 62.4506 127.945 62.5176C127.928 62.5413 127.913 62.5671 127.902 62.5942C127.826 62.7694 127.688 62.9103 127.515 62.9903C127.341 63.0703 127.145 63.0837 126.962 63.028C126.934 63.019 126.905 63.0133 126.876 63.0111C126.792 63.006 126.709 63.028 126.639 63.0738C126.569 63.1197 126.516 63.1869 126.487 63.2656C126.458 63.3443 126.455 63.4302 126.478 63.5107C126.502 63.5912 126.551 63.6619 126.618 63.7124C126.641 63.7298 126.667 63.7443 126.694 63.7556C126.869 63.8319 127.01 63.9699 127.09 64.1434C127.17 64.3169 127.183 64.5137 127.128 64.6964C127.118 64.7244 127.113 64.7534 127.111 64.7828C127.106 64.8665 127.127 64.9496 127.173 65.0199C127.219 65.0901 127.286 65.1437 127.365 65.1727C127.443 65.2017 127.529 65.2047 127.61 65.181C127.69 65.1574 127.761 65.1085 127.811 65.0415C127.828 65.0177 127.843 64.992 127.854 64.9648C127.93 64.7897 128.068 64.6487 128.242 64.5687C128.415 64.4887 128.611 64.4753 128.794 64.5311C128.822 64.5401 128.851 64.5458 128.88 64.548C128.964 64.5531 129.047 64.5311 129.117 64.4852C129.187 64.4394 129.241 64.3721 129.27 64.2935C129.299 64.2148 129.302 64.1288 129.278 64.0483C129.254 63.9679 129.205 63.8972 129.139 63.8467C129.115 63.8293 129.089 63.8148 129.062 63.8035Z" fill="#4D8AF0"/>
<path opacity="0.5" d="M94.7414 101.968C94.6242 101.917 94.5299 101.824 94.4764 101.708C94.4228 101.591 94.4139 101.459 94.4512 101.336C94.4572 101.317 94.461 101.298 94.4625 101.278C94.4659 101.222 94.4512 101.166 94.4205 101.119C94.3898 101.072 94.3448 101.036 94.2922 101.016C94.2395 100.997 94.182 100.995 94.1282 101.011C94.0743 101.027 94.027 101.059 93.9932 101.104C93.9816 101.12 93.9719 101.138 93.9643 101.156C93.9133 101.273 93.8209 101.368 93.7049 101.422C93.5888 101.476 93.4571 101.485 93.3348 101.447C93.3161 101.441 93.2967 101.437 93.2771 101.436C93.221 101.432 93.1654 101.447 93.1184 101.478C93.0714 101.509 93.0356 101.554 93.0161 101.607C92.9967 101.66 92.9948 101.717 93.0106 101.771C93.0264 101.825 93.0591 101.873 93.1039 101.907C93.1198 101.919 93.1371 101.928 93.1552 101.936C93.2724 101.987 93.3668 102.08 93.4203 102.196C93.4738 102.313 93.4828 102.445 93.4455 102.568C93.4394 102.587 93.4356 102.606 93.4341 102.626C93.4307 102.682 93.4455 102.738 93.4761 102.785C93.5068 102.832 93.5518 102.868 93.6044 102.888C93.6571 102.907 93.7146 102.909 93.7684 102.893C93.8223 102.877 93.8696 102.845 93.9034 102.8C93.915 102.784 93.9247 102.766 93.9323 102.748C93.9833 102.63 94.0757 102.536 94.1918 102.482C94.3078 102.428 94.4395 102.419 94.5618 102.457C94.5805 102.463 94.5999 102.467 94.6196 102.468C94.6756 102.472 94.7312 102.457 94.7782 102.426C94.8252 102.395 94.8611 102.35 94.8805 102.297C94.8999 102.244 94.9019 102.187 94.886 102.132C94.8702 102.078 94.8375 102.031 94.7927 101.997C94.7768 101.985 94.7596 101.976 94.7414 101.968Z" fill="#4D8AF0"/>
<path opacity="0.5" d="M115.416 74.8346C116.197 74.8346 116.831 74.2001 116.831 73.4173C116.831 72.6346 116.197 72 115.416 72C114.634 72 114 72.6346 114 73.4173C114 74.2001 114.634 74.8346 115.416 74.8346Z" fill="#F55F44"/>
<path opacity="0.5" d="M56.8505 23.7075C57.3202 23.7075 57.701 23.3253 57.701 22.8537C57.701 22.3822 57.3202 22 56.8505 22C56.3808 22 56 22.3822 56 22.8537C56 23.3253 56.3808 23.7075 56.8505 23.7075Z" fill="#F55F44"/>
<path opacity="0.5" d="M15.9505 81.174C16.4202 81.174 16.801 80.7917 16.801 80.3202C16.801 79.8487 16.4202 79.4665 15.9505 79.4665C15.4808 79.4665 15.1 79.8487 15.1 80.3202C15.1 80.7917 15.4808 81.174 15.9505 81.174Z" fill="#F55F44"/>
<path opacity="0.5" d="M113.85 90.7075C114.32 90.7075 114.701 90.3253 114.701 89.8537C114.701 89.3822 114.32 89 113.85 89C113.381 89 113 89.3822 113 89.8537C113 90.3253 113.381 90.7075 113.85 90.7075Z" fill="#4D8AF0"/>
<path opacity="0.5" d="M104.85 29.7075C105.32 29.7075 105.701 29.3253 105.701 28.8537C105.701 28.3822 105.32 28 104.85 28C104.381 28 104 28.3822 104 28.8537C104 29.3253 104.381 29.7075 104.85 29.7075Z" fill="#4D8AF0"/>
<path opacity="0.5" d="M36.8505 100.708C37.3202 100.708 37.701 100.325 37.701 99.8538C37.701 99.3822 37.3202 99 36.8505 99C36.3808 99 36 99.3822 36 99.8538C36 100.325 36.3808 100.708 36.8505 100.708Z" fill="#47E6B1"/>
<path opacity="0.5" d="M14.8875 49.7795C15.9299 49.7795 16.775 48.9335 16.775 47.8898C16.775 46.8461 15.9299 46 14.8875 46C13.8451 46 13 46.8461 13 47.8898C13 48.9335 13.8451 49.7795 14.8875 49.7795Z" fill="#47E6B1"/>
<path opacity="0.5" d="M88.8505 22.7075C89.3202 22.7075 89.701 22.3253 89.701 21.8537C89.701 21.3822 89.3202 21 88.8505 21C88.3808 21 88 21.3822 88 21.8537C88 22.3253 88.3808 22.7075 88.8505 22.7075Z" fill="#F55F44"/>
<path opacity="0.5" d="M119.637 37.0016C120.107 37.0016 120.488 36.6194 120.488 36.1479C120.488 35.6764 120.107 35.2941 119.637 35.2941C119.167 35.2941 118.787 35.6764 118.787 36.1479C118.787 36.6194 119.167 37.0016 119.637 37.0016Z" fill="#F55F44"/>
<path d="M52.7353 73.5989C52.5576 73.4236 52.4498 73.2797 52.3861 73.1785L55.5438 68.4238L86.0498 57.0457L100.075 66.6641L104.508 73.1359C104.422 73.2355 104.291 73.3685 104.096 73.5267C103.574 73.9503 102.597 74.5525 100.82 75.1701C97.2621 76.4072 90.5558 77.686 78.0359 77.757C65.515 77.828 59.0309 76.548 55.6957 75.2817C54.0318 74.6499 53.1715 74.0289 52.7353 73.5989Z" fill="#96BEFA" stroke="#81B1FB"/>
<path d="M103.553 38.4464L103.553 38.4466L126.368 49.0061L82.9105 68.256L29.8168 48.9636L78.3915 26.7998L102.676 38.0395L102.676 38.0396L103.553 38.4464Z" fill="#96BEFA" stroke="#81B1FB"/>
<path d="M104.687 53.7573L103.837 53.8085L102.886 37.5859L103.763 37.9928L104.687 53.7573Z" fill="#F5F5F5"/>
<path d="M99.9177 47.8527C100.381 47.9032 100.741 47.9444 100.987 47.9731L104.499 72.3786C92.2194 68.0038 79.1527 68.0332 69.1055 69.1694C63.9701 69.7501 59.6135 70.6211 56.5395 71.3473C55.0023 71.7104 53.7853 72.0375 52.9513 72.2742C52.76 72.3285 52.5889 72.378 52.4386 72.4221L56.2335 49.2935C59.2241 48.0084 63.446 47.2617 68.1588 46.8799C72.9897 46.4885 78.2889 46.4836 83.2132 46.6522C88.1359 46.8208 92.6754 47.1624 95.9847 47.462C97.6391 47.6118 98.9854 47.751 99.9177 47.8527Z" fill="#C7DDFF" stroke="#81B1FB"/>
<path d="M104.617 58.6919C106.887 58.6919 108.727 57.4178 108.727 55.8461C108.727 54.2744 106.887 53.0003 104.617 53.0003C102.346 53.0003 100.506 54.2744 100.506 55.8461C100.506 57.4178 102.346 58.6919 104.617 58.6919Z" fill="#F5F5F5"/>
<path opacity="0.5" d="M18.7289 26.4798C18.6118 26.4286 18.5174 26.3359 18.4639 26.2194C18.4104 26.1029 18.4014 25.9706 18.4387 25.8479C18.4447 25.8291 18.4485 25.8096 18.45 25.7899C18.4534 25.7337 18.4387 25.6779 18.4081 25.6307C18.3774 25.5835 18.3324 25.5475 18.2797 25.528C18.2271 25.5085 18.1696 25.5066 18.1157 25.5224C18.0619 25.5383 18.0146 25.5712 17.9808 25.6162C17.9692 25.6321 17.9595 25.6494 17.9519 25.6676C17.9008 25.7853 17.8085 25.88 17.6924 25.9337C17.5763 25.9874 17.4446 25.9964 17.3224 25.959C17.3036 25.9529 17.2842 25.9491 17.2646 25.9476C17.2086 25.9442 17.153 25.959 17.106 25.9898C17.059 26.0206 17.0231 26.0657 17.0037 26.1186C16.9843 26.1714 16.9823 26.2291 16.9981 26.2832C17.014 26.3372 17.0467 26.3847 17.0915 26.4187C17.1074 26.4303 17.1246 26.4401 17.1428 26.4477C17.26 26.4989 17.3543 26.5916 17.4078 26.7081C17.4613 26.8246 17.4703 26.9569 17.433 27.0796C17.427 27.0984 17.4232 27.1179 17.4217 27.1376C17.4183 27.1938 17.433 27.2496 17.4637 27.2968C17.4943 27.344 17.5393 27.38 17.592 27.3995C17.6446 27.419 17.7021 27.4209 17.756 27.4051C17.8098 27.3892 17.8572 27.3563 17.8909 27.3113C17.9026 27.2954 17.9123 27.2781 17.9198 27.2599C17.9709 27.1422 18.0632 27.0475 18.1793 26.9938C18.2954 26.9401 18.4271 26.9311 18.5494 26.9685C18.5681 26.9746 18.5875 26.9784 18.6071 26.9799C18.6631 26.9833 18.7188 26.9685 18.7658 26.9377C18.8127 26.9069 18.8486 26.8618 18.868 26.8089C18.8875 26.7561 18.8894 26.6984 18.8736 26.6443C18.8578 26.5903 18.825 26.5428 18.7802 26.5088C18.7643 26.4972 18.7471 26.4874 18.7289 26.4798Z" fill="#4D8AF0"/>
<defs>
<linearGradient id="paint0_linear" x1="59.152" y1="78.1712" x2="63.8238" y2="68.7914" gradientUnits="userSpaceOnUse">
<stop stop-color="#808080" stop-opacity="0.25"/>
<stop offset="0.53514" stop-color="#808080" stop-opacity="0.12"/>
<stop offset="1" stop-color="#808080" stop-opacity="0.1"/>
</linearGradient>
</defs>
</svg>
