<svg width="80" height="80" viewBox="0 0 80 80" fill="none" xmlns="http://www.w3.org/2000/svg">
<path d="M41.6 55.32H12.2C10.6 55.32 9.32001 54.04 9.32001 52.44V52.24C9.32001 50.64 10.6 49.36 12.2 49.36H41.6C43.2 49.36 44.48 50.64 44.48 52.24V52.44C44.48 54.04 43.2 55.32 41.6 55.32Z" fill="#E3EEFF"/>
<path d="M41.6 65.84H41.16C38.24 65.84 35.92 63.48 35.92 60.6C35.92 57.68 38.28 55.36 41.16 55.36H41.6V49.44H14.28V55.36H24.28C27.2 55.36 29.52 57.72 29.52 60.6C29.52 63.52 27.16 65.84 24.28 65.84H14.28V71.76H41.6V65.84Z" fill="#E3EEFF"/>
<path d="M43.24 40.4C43.24 39.32 42.4 38.44 41.32 38.44H21.76C20.68 38.44 19.76 39.32 19.76 40.44C19.76 41.52 20.64 42.44 21.76 42.44H29.72C31.68 42.44 33.24 44 33.24 45.96C33.24 47.92 31.68 49.48 29.72 49.48H23.08V53.44H41.32V49.48H41.04C39.08 49.48 37.52 47.92 37.52 45.96C37.52 44 39.08 42.44 41.04 42.44H41.36C42.4 42.32 43.24 41.48 43.24 40.4ZM54.16 65.84H12.32C10.68 65.84 9.35999 67.16 9.35999 68.8C9.35999 70.44 10.68 71.76 12.32 71.76H54.2V65.84H54.16ZM55.24 65.84H57.76V71.76H55.24V65.84ZM60.84 65.84H62.44V71.76H60.84V65.84ZM67.04 65.84H63.28V71.76H67.04C68.68 71.76 70 70.44 70 68.8C70 67.16 68.68 65.84 67.04 65.84Z" fill="#E3EEFF"/>
<path d="M37.2 27.84C35.76 27.84 34.56 26.76 34.44 25.28C34.32 23.76 35.44 22.4 36.96 22.24C38.48 22.12 39.84 23.24 40 24.76C40.12 26.28 39 27.64 37.48 27.8C37.4 27.8 37.28 27.84 37.2 27.84ZM37.24 22.92H37.04C35.88 23 35.04 24.04 35.12 25.2C35.2 26.36 36.24 27.2 37.4 27.12C38.56 27.04 39.4 26 39.32 24.84C39.2 23.76 38.28 22.92 37.24 22.92Z" fill="#B6CCEE"/>
<path d="M56.72 27.84H53.8C53.6 27.84 53.44 27.68 53.44 27.48C53.44 27.28 53.6 27.12 53.8 27.12H56.72C56.92 27.12 57.08 27.28 57.08 27.48C57.08 27.68 56.88 27.84 56.72 27.84Z" fill="#3483FA"/>
<path d="M55.24 29.28C55.04 29.28 54.88 29.12 54.88 28.92V26C54.88 25.8 55.04 25.64 55.24 25.64C55.44 25.64 55.6 25.8 55.6 26V28.92C55.6 29.12 55.44 29.28 55.24 29.28Z" fill="#3483FA"/>
<path d="M51.12 18.88H22.64C20.88 18.88 19.44 20.36 19.44 22.2V65.92C19.44 67.76 20.88 69.24 22.64 69.24H58.24C60 69.24 61.44 67.76 61.44 65.92V29.6C61.44 29.44 61.32 29.32 61.16 29.32H53.56C52.36 29.32 51.4 28.32 51.4 27.08V19.16C51.4 19 51.28 18.88 51.12 18.88Z" fill="white"/>
<path d="M51.12 18.88H22.64C20.88 18.88 19.44 20.36 19.44 22.2V65.92C19.44 67.76 20.88 69.24 22.64 69.24H58.24C60 69.24 61.44 67.76 61.44 65.92V29.6C61.44 29.44 61.32 29.32 61.16 29.32H53.56C52.36 29.32 51.4 28.32 51.4 27.08V19.16C51.4 19 51.28 18.88 51.12 18.88Z" fill="white"/>
<path d="M51.12 18.88H22.64C20.88 18.88 19.44 20.36 19.44 22.2V65.92C19.44 67.76 20.88 69.24 22.64 69.24H58.24C60 69.24 61.44 67.76 61.44 65.92V29.6C61.44 29.44 61.32 29.32 61.16 29.32H53.56C52.36 29.32 51.4 28.32 51.4 27.08V19.16C51.4 19 51.28 18.88 51.12 18.88Z" fill="#C7DDFF"/>
<path d="M25.92 65.92V22.2C25.92 20.36 27.36 18.88 29.12 18.88H22.64C20.88 18.88 19.44 20.36 19.44 22.2V65.92C19.44 67.76 20.88 69.24 22.64 69.24H29.12C27.36 69.24 25.92 67.76 25.92 65.92Z" fill="white"/>
<path d="M41.32 31.64H23.52C23 31.64 22.6 31.24 22.6 30.72V30.16C22.6 29.64 23 29.24 23.52 29.24H41.28C41.8 29.24 42.2 29.64 42.2 30.16V30.72C42.2 31.24 41.8 31.64 41.32 31.64Z" fill="#81B1FB"/>
<path d="M33.08 38.36H23.52C23 38.36 22.6 37.96 22.6 37.44V36.88C22.6 36.36 23 35.96 23.52 35.96H33.08C33.6 35.96 34 36.36 34 36.88V37.44C34 37.96 33.6 38.36 33.08 38.36ZM30.52 45.12H23.52C23 45.12 22.6 44.72 22.6 44.2V43.64C22.6 43.12 23 42.72 23.52 42.72H30.52C31.04 42.72 31.44 43.12 31.44 43.64V44.2C31.44 44.68 31.04 45.12 30.52 45.12Z" fill="#81B1FB"/>
<path d="M53.84 29.28H60.8C61.04 29.28 61.16 28.96 61 28.8L51.88 19.32C51.72 19.16 51.4 19.28 51.4 19.52V26.76C51.44 28.16 52.52 29.28 53.84 29.28Z" fill="#C7DDFF"/>
<path d="M60.8 29.96H53.84C52.12 29.96 50.76 28.52 50.76 26.76V19.52C50.76 19.12 51 18.76 51.36 18.6C51.72 18.44 52.12 18.56 52.4 18.84L61.52 28.32C61.8 28.6 61.88 29.04 61.72 29.4C61.56 29.72 61.2 29.96 60.8 29.96ZM52.12 20.56V26.76C52.12 27.76 52.88 28.56 53.8 28.56H59.8L52.12 20.56Z" fill="#81B1FB"/>
<path d="M61.16 29.32H56C56.16 29.32 56.28 29.44 56.28 29.6V65.92C56.28 67.76 54.84 69.24 53.08 69.24H58.24C60 69.24 61.44 67.76 61.44 65.92V29.6C61.44 29.44 61.32 29.32 61.16 29.32ZM46.92 19.84V27.72C46.92 28.96 47.88 29.96 49.08 29.96H54.24C53.04 29.96 52.08 28.96 52.08 27.72V19.84C52.08 19.68 51.96 19.56 51.8 19.56H46.64C46.8 19.56 46.92 19.68 46.92 19.84Z" fill="#B6CCEE"/>
<path d="M58.24 69.92H22.64C20.48 69.92 18.76 68.12 18.76 65.92V22.2C18.76 20 20.52 18.2 22.64 18.2H51.16C51.68 18.2 52.12 18.64 52.12 19.16V27.04C52.12 27.92 52.8 28.6 53.6 28.6H61.2C61.72 28.6 62.16 29.04 62.16 29.56V65.88C62.12 68.12 60.4 69.92 58.24 69.92ZM22.64 19.56C21.28 19.56 20.16 20.72 20.16 22.16V65.88C20.16 67.32 21.28 68.48 22.64 68.48H58.24C59.6 68.48 60.72 67.32 60.72 65.88V30H53.56C51.96 30 50.68 28.68 50.68 27.04V19.56H22.64Z" fill="#81B1FB"/>
<path d="M51.8 59.72L55.04 63.04L51.8 59.72Z" fill="#E0E0E0"/>
<path d="M55.04 63.92C54.8 63.92 54.56 63.84 54.4 63.64L51.2 60.32C50.84 59.96 50.88 59.4 51.24 59.08C51.6 58.72 52.16 58.76 52.48 59.12L55.68 62.44C56.04 62.8 56 63.36 55.64 63.68C55.48 63.84 55.24 63.92 55.04 63.92Z" fill="#81B1FB"/>
<path d="M45.24 40.64C44.76 40.64 44.24 40.68 43.76 40.76C48.8 41.52 52.64 45.96 52.64 51.4C52.64 56.84 48.76 61.28 43.76 62.04C44.24 62.12 44.72 62.16 45.24 62.16C50.96 62.16 55.6 57.36 55.6 51.4C55.6 45.44 50.96 40.64 45.24 40.64Z" fill="#B6CCEE"/>
<path d="M55.12 63.08L61.72 69.96L55.12 63.08Z" fill="#E0E0E0"/>
<path d="M61.72 71.84C61.24 71.84 60.72 71.64 60.36 71.28L53.76 64.4C53.04 63.64 53.08 62.48 53.8 61.76C54.56 61.04 55.72 61.08 56.44 61.8L63.04 68.64C63.76 69.4 63.72 70.56 63 71.28C62.68 71.64 62.2 71.84 61.72 71.84Z" fill="#81B1FB"/>
<path d="M45.24 62.84C39.12 62.84 34.16 57.72 34.16 51.4C34.16 45.08 39.12 39.96 45.24 39.96C51.36 39.96 56.32 45.08 56.32 51.4C56.32 57.72 51.32 62.84 45.24 62.84ZM45.24 41.32C39.92 41.32 35.56 45.84 35.56 51.36C35.56 56.88 39.88 61.4 45.24 61.4C50.6 61.4 54.92 56.88 54.92 51.36C54.92 45.84 50.56 41.32 45.24 41.32Z" fill="#81B1FB"/>
<path d="M48.6 45.96C48.48 45.96 48.36 45.92 48.24 45.88C47.6 45.52 46.92 45.24 46.16 45.12C45.76 45.04 45.52 44.72 45.6 44.32C45.68 43.96 46.04 43.68 46.4 43.76C47.32 43.92 48.16 44.2 48.96 44.68C49.28 44.88 49.4 45.32 49.2 45.64C49.04 45.84 48.84 45.96 48.6 45.96ZM38.44 52.08C38.04 52.08 37.76 51.76 37.76 51.4C37.76 50.16 38.04 48.92 38.6 47.84C39.48 46.12 40.92 44.8 42.68 44.12C43.04 44 43.44 44.16 43.56 44.52C43.68 44.88 43.52 45.28 43.16 45.4C41.72 45.96 40.56 47 39.84 48.44C39.4 49.36 39.16 50.32 39.16 51.36C39.16 51.8 38.84 52.08 38.44 52.08Z" fill="#81B1FB"/>
<path opacity="0.5" d="M45.0299 11.6815C44.826 11.5925 44.6619 11.4315 44.5688 11.2291C44.4756 11.0267 44.46 10.797 44.5249 10.5838C44.5354 10.5511 44.542 10.5173 44.5446 10.4831C44.5506 10.3854 44.5249 10.2884 44.4716 10.2065C44.4182 10.1245 44.3399 10.062 44.2483 10.0281C44.1567 9.99428 44.0566 9.99088 43.963 10.0185C43.8693 10.046 43.7869 10.1031 43.7282 10.1813C43.7079 10.209 43.6911 10.239 43.6779 10.2707C43.5891 10.475 43.4284 10.6395 43.2264 10.7328C43.0244 10.8261 42.7953 10.8418 42.5826 10.7767C42.55 10.7662 42.5162 10.7596 42.4821 10.757C42.3846 10.751 42.2878 10.7767 42.206 10.8302C42.1243 10.8837 42.0619 10.9622 42.0281 11.054C41.9943 11.1458 41.9909 11.246 42.0184 11.3399C42.0459 11.4338 42.1029 11.5163 42.1809 11.5752C42.2085 11.5955 42.2385 11.6124 42.2701 11.6256C42.474 11.7146 42.6381 11.8756 42.7312 12.078C42.8244 12.2804 42.84 12.5101 42.7751 12.7233C42.7646 12.7559 42.758 12.7898 42.7554 12.824C42.7494 12.9217 42.7751 13.0187 42.8284 13.1006C42.8818 13.1825 42.9601 13.2451 43.0517 13.2789C43.1433 13.3128 43.2434 13.3162 43.337 13.2886C43.4307 13.261 43.5131 13.204 43.5718 13.1258C43.5921 13.0981 43.6089 13.0681 43.6221 13.0364C43.7109 12.8321 43.8716 12.6676 44.0736 12.5743C44.2755 12.481 44.5047 12.4653 44.7174 12.5303C44.75 12.5409 44.7838 12.5475 44.8179 12.5501C44.9154 12.556 45.0122 12.5304 45.094 12.4769C45.1757 12.4234 45.2381 12.3449 45.2719 12.2531C45.3057 12.1613 45.3091 12.0611 45.2816 11.9672C45.2541 11.8733 45.1971 11.7908 45.1191 11.7319C45.0915 11.7116 45.0615 11.6947 45.0299 11.6815Z" fill="#4D8AF0"/>
<path opacity="0.5" d="M68.8363 16.0169C68.7127 15.9631 68.6133 15.8657 68.5568 15.7433C68.5004 15.6209 68.4909 15.482 68.5303 15.3531C68.5366 15.3333 68.5406 15.3129 68.5422 15.2922C68.5458 15.2331 68.5303 15.1744 68.4979 15.1249C68.4656 15.0753 68.4181 15.0375 68.3626 15.017C68.3071 14.9965 68.2464 14.9945 68.1897 15.0112C68.1329 15.0278 68.083 15.0624 68.0474 15.1096C68.0351 15.1264 68.0249 15.1445 68.0169 15.1637C67.9631 15.2873 67.8657 15.3867 67.7433 15.4432C67.6209 15.4996 67.482 15.5091 67.3531 15.4697C67.3333 15.4634 67.3129 15.4594 67.2922 15.4578C67.2331 15.4542 67.1744 15.4697 67.1249 15.5021C67.0753 15.5344 67.0375 15.5819 67.017 15.6374C66.9965 15.6929 66.9945 15.7536 67.0112 15.8103C67.0278 15.8671 67.0624 15.917 67.1096 15.9526C67.1264 15.9649 67.1445 15.9751 67.1637 15.9831C67.2873 16.0369 67.3867 16.1343 67.4432 16.2567C67.4996 16.3791 67.5091 16.518 67.4697 16.6469C67.4634 16.6667 67.4594 16.6871 67.4578 16.7078C67.4542 16.7669 67.4697 16.8256 67.5021 16.8751C67.5344 16.9247 67.5819 16.9625 67.6374 16.983C67.6929 17.0035 67.7535 17.0055 67.8103 16.9888C67.8671 16.9722 67.917 16.9376 67.9526 16.8904C67.9649 16.8736 67.9751 16.8555 67.9831 16.8363C68.0369 16.7127 68.1343 16.6133 68.2567 16.5568C68.3791 16.5004 68.518 16.4909 68.6469 16.5303C68.6667 16.5366 68.6871 16.5406 68.7078 16.5422C68.7669 16.5458 68.8256 16.5303 68.8751 16.4979C68.9247 16.4656 68.9625 16.4181 68.983 16.3626C69.0035 16.3071 69.0055 16.2464 68.9888 16.1897C68.9722 16.1329 68.9376 16.083 68.8904 16.0474C68.8736 16.0351 68.8555 16.0249 68.8363 16.0169Z" fill="#4D8AF0"/>
<path opacity="0.5" d="M71.8363 38.0169C71.7127 37.9631 71.6133 37.8657 71.5568 37.7433C71.5004 37.6209 71.4909 37.482 71.5303 37.3531C71.5366 37.3333 71.5406 37.3129 71.5422 37.2922C71.5458 37.2331 71.5303 37.1744 71.4979 37.1249C71.4656 37.0753 71.4181 37.0375 71.3626 37.017C71.3071 36.9965 71.2464 36.9945 71.1897 37.0112C71.1329 37.0278 71.083 37.0624 71.0474 37.1096C71.0351 37.1264 71.0249 37.1445 71.0169 37.1637C70.9631 37.2873 70.8657 37.3867 70.7433 37.4432C70.6209 37.4996 70.482 37.5091 70.3531 37.4697C70.3333 37.4634 70.3129 37.4594 70.2922 37.4578C70.2331 37.4542 70.1744 37.4697 70.1249 37.5021C70.0753 37.5344 70.0375 37.5819 70.017 37.6374C69.9965 37.6929 69.9945 37.7536 70.0112 37.8103C70.0278 37.8671 70.0624 37.917 70.1096 37.9526C70.1264 37.9649 70.1445 37.9751 70.1637 37.9831C70.2873 38.0369 70.3867 38.1343 70.4432 38.2567C70.4996 38.3791 70.5091 38.518 70.4697 38.6469C70.4634 38.6667 70.4594 38.6871 70.4578 38.7078C70.4542 38.7669 70.4697 38.8256 70.5021 38.8751C70.5344 38.9247 70.5819 38.9625 70.6374 38.983C70.6929 39.0035 70.7535 39.0055 70.8103 38.9888C70.8671 38.9722 70.917 38.9376 70.9526 38.8904C70.9649 38.8736 70.9751 38.8555 70.9831 38.8363C71.0369 38.7127 71.1343 38.6133 71.2567 38.5568C71.3791 38.5004 71.518 38.4909 71.6469 38.5303C71.6667 38.5366 71.6871 38.5406 71.7078 38.5422C71.7669 38.5458 71.8256 38.5303 71.8751 38.4979C71.9247 38.4656 71.9625 38.4181 71.983 38.3626C72.0035 38.3071 72.0055 38.2464 71.9888 38.1897C71.9722 38.1329 71.9376 38.083 71.8904 38.0474C71.8736 38.0351 71.8555 38.0249 71.8363 38.0169Z" fill="#FAAFA1"/>
<path opacity="0.5" d="M10.8363 11.0169C10.7127 10.9631 10.6133 10.8657 10.5568 10.7433C10.5004 10.6209 10.4909 10.482 10.5303 10.3531C10.5366 10.3333 10.5406 10.3129 10.5422 10.2922C10.5458 10.2331 10.5303 10.1744 10.4979 10.1249C10.4656 10.0753 10.4181 10.0375 10.3626 10.017C10.3071 9.99654 10.2464 9.99449 10.1897 10.0112C10.1329 10.0278 10.083 10.0624 10.0474 10.1096C10.0351 10.1264 10.0249 10.1445 10.0169 10.1637C9.96307 10.2873 9.86569 10.3867 9.74328 10.4432C9.62088 10.4996 9.482 10.5091 9.35307 10.4697C9.33331 10.4634 9.31286 10.4594 9.29215 10.4578C9.23309 10.4542 9.17443 10.4697 9.12488 10.5021C9.07532 10.5344 9.0375 10.5819 9.01702 10.6374C8.99654 10.6929 8.99449 10.7536 9.01116 10.8103C9.02784 10.8671 9.06236 10.917 9.10962 10.9526C9.12638 10.9649 9.14453 10.9751 9.16369 10.9831C9.28727 11.0369 9.38674 11.1343 9.44318 11.2567C9.49961 11.3791 9.50907 11.518 9.46974 11.6469C9.46338 11.6667 9.45937 11.6871 9.4578 11.7078C9.45421 11.7669 9.46973 11.8256 9.50208 11.8751C9.53442 11.9247 9.58187 11.9625 9.63739 11.983C9.69291 12.0035 9.75355 12.0055 9.81033 11.9888C9.86711 11.9722 9.91701 11.9376 9.95263 11.8904C9.96488 11.8736 9.97511 11.8555 9.98311 11.8363C10.0369 11.7127 10.1343 11.6133 10.2567 11.5568C10.3791 11.5004 10.518 11.4909 10.6469 11.5303C10.6667 11.5366 10.6871 11.5406 10.7078 11.5422C10.7669 11.5458 10.8256 11.5303 10.8751 11.4979C10.9247 11.4656 10.9625 11.4181 10.983 11.3626C11.0035 11.3071 11.0055 11.2464 10.9888 11.1897C10.9722 11.1329 10.9376 11.083 10.8904 11.0474C10.8736 11.0351 10.8555 11.0249 10.8363 11.0169Z" fill="#4D8AF0"/>
<g opacity="0.5">
<path opacity="0.5" d="M29.6521 12H29.1565V14.8221H29.6521V12Z" fill="#47E6B1"/>
<path opacity="0.5" d="M30.8087 13.6601V13.162H28V13.6601H30.8087Z" fill="#47E6B1"/>
</g>
<g opacity="0.5">
<path opacity="0.5" d="M2.17649 50H1.82355V52.0096H2.17649V50Z" fill="#47E6B1"/>
<path opacity="0.5" d="M3 51.1821V50.8275H0.999997V51.1821H3Z" fill="#47E6B1"/>
</g>
<g opacity="0.5">
<path opacity="0.5" d="M68.1765 51H67.8235V53.0096H68.1765V51Z" fill="#47E6B1"/>
<path opacity="0.5" d="M69 52.1821V51.8275H67V52.1821H69Z" fill="#47E6B1"/>
</g>
<g opacity="0.5">
<path opacity="0.5" d="M7.65215 32H7.15649V34.8221H7.65215V32Z" fill="#47E6B1"/>
<path opacity="0.5" d="M8.80872 33.6601V33.162H6.00001V33.6601H8.80872Z" fill="#47E6B1"/>
</g>
<g opacity="0.5">
<path opacity="0.5" d="M68.6521 27H68.1565V29.8221H68.6521V27Z" fill="#47E6B1"/>
<path opacity="0.5" d="M69.8087 28.6601V28.162H67V28.6601H69.8087Z" fill="#47E6B1"/>
</g>
<path opacity="0.5" d="M59.9913 16.9921C60.5388 16.9921 60.9826 16.5461 60.9826 15.996C60.9826 15.4459 60.5388 15 59.9913 15C59.4438 15 59 15.4459 59 15.996C59 16.5461 59.4438 16.9921 59.9913 16.9921Z" fill="#F55F44"/>
<path opacity="0.5" d="M13.9913 41.9921C14.5388 41.9921 14.9826 41.5461 14.9826 40.996C14.9826 40.4459 14.5388 40 13.9913 40C13.4438 40 13 40.4459 13 40.996C13 41.5461 13.4438 41.9921 13.9913 41.9921Z" fill="#F55F44"/>
<path opacity="0.5" d="M13.5 18C13.7761 18 14 17.7761 14 17.5C14 17.2239 13.7761 17 13.5 17C13.2239 17 13 17.2239 13 17.5C13 17.7761 13.2239 18 13.5 18Z" fill="#F55F44"/>
<path opacity="0.5" d="M54 8C54.5523 8 55 7.55228 55 7C55 6.44772 54.5523 6 54 6C53.4477 6 53 6.44772 53 7C53 7.55228 53.4477 8 54 8Z" fill="#F55F44"/>
<path opacity="0.5" d="M74.9913 62.9921C75.5388 62.9921 75.9826 62.5461 75.9826 61.996C75.9826 61.4459 75.5388 61 74.9913 61C74.4438 61 74 61.4459 74 61.996C74 62.5461 74.4438 62.9921 74.9913 62.9921Z" fill="#F55F44"/>
<path opacity="0.5" d="M68.0297 43.1294C67.8931 43.0696 67.7832 42.9614 67.7208 42.8255C67.6584 42.6895 67.648 42.5353 67.6914 42.3921C67.6985 42.3702 67.7029 42.3475 67.7046 42.3245C67.7086 42.2589 67.6914 42.1937 67.6557 42.1387C67.6199 42.0837 67.5675 42.0416 67.5061 42.0189C67.4447 41.9962 67.3777 41.9939 67.315 42.0124C67.2522 42.0309 67.1971 42.0693 67.1577 42.1217C67.1441 42.1404 67.1328 42.1605 67.124 42.1818C67.0645 42.319 66.9569 42.4295 66.8216 42.4922C66.6863 42.5549 66.5328 42.5654 66.3903 42.5217C66.3684 42.5146 66.3458 42.5102 66.3229 42.5084C66.2576 42.5044 66.1928 42.5217 66.138 42.5576C66.0833 42.5935 66.0415 42.6462 66.0188 42.7079C65.9962 42.7695 65.9939 42.8369 66.0123 42.8999C66.0308 42.963 66.0689 43.0184 66.1212 43.058C66.1397 43.0716 66.1598 43.083 66.1809 43.0918C66.3175 43.1516 66.4275 43.2598 66.4899 43.3957C66.5522 43.5316 66.5627 43.6859 66.5192 43.8291C66.5122 43.851 66.5078 43.8737 66.506 43.8967C66.502 43.9623 66.5192 44.0275 66.555 44.0825C66.5907 44.1375 66.6431 44.1795 66.7045 44.2023C66.7659 44.225 66.8329 44.2273 66.8957 44.2088C66.9584 44.1903 67.0136 44.1519 67.053 44.0995C67.0665 44.0808 67.0778 44.0607 67.0866 44.0394C67.1461 43.9021 67.2538 43.7917 67.3891 43.729C67.5244 43.6663 67.6779 43.6558 67.8204 43.6995C67.8422 43.7066 67.8648 43.711 67.8877 43.7128C67.953 43.7168 68.0178 43.6995 68.0726 43.6636C68.1274 43.6277 68.1692 43.575 68.1918 43.5133C68.2145 43.4516 68.2167 43.3843 68.1983 43.3212C68.1799 43.2582 68.1417 43.2028 68.0895 43.1632C68.0709 43.1496 68.0509 43.1382 68.0297 43.1294Z" fill="#4D8AF0"/>
<path opacity="0.5" d="M8.0297 64.1294C7.89311 64.0696 7.78316 63.9614 7.72078 63.8255C7.65841 63.6895 7.64796 63.5353 7.69142 63.3921C7.69846 63.3702 7.70289 63.3475 7.70462 63.3245C7.7086 63.2589 7.69144 63.1937 7.65568 63.1387C7.61993 63.0837 7.56749 63.0416 7.50612 63.0189C7.44475 62.9962 7.37772 62.9939 7.31496 63.0124C7.2522 63.0309 7.19705 63.0693 7.15768 63.1217C7.14414 63.1404 7.13283 63.1605 7.12399 63.1818C7.0645 63.319 6.95686 63.4295 6.82156 63.4922C6.68627 63.5549 6.53276 63.5654 6.39026 63.5217C6.36841 63.5146 6.34581 63.5102 6.32292 63.5084C6.25764 63.5044 6.1928 63.5217 6.13803 63.5576C6.08325 63.5935 6.04145 63.6462 6.01881 63.7079C5.99618 63.7695 5.99391 63.8369 6.01234 63.8999C6.03077 63.963 6.06893 64.0184 6.12116 64.058C6.13969 64.0716 6.15975 64.083 6.18094 64.0918C6.31753 64.1516 6.42747 64.2598 6.48985 64.3957C6.55223 64.5316 6.56268 64.6859 6.51922 64.8291C6.51218 64.851 6.50775 64.8737 6.50602 64.8967C6.50204 64.9623 6.5192 65.0275 6.55495 65.0825C6.59071 65.1375 6.64315 65.1795 6.70452 65.2023C6.76588 65.225 6.83291 65.2273 6.89567 65.2088C6.95843 65.1903 7.01359 65.1519 7.05296 65.0995C7.0665 65.0808 7.07781 65.0607 7.08665 65.0394C7.14614 64.9021 7.25377 64.7917 7.38907 64.729C7.52437 64.6663 7.67788 64.6558 7.82038 64.6995C7.84223 64.7066 7.86483 64.711 7.88772 64.7128C7.953 64.7168 8.01784 64.6995 8.07261 64.6636C8.12739 64.6277 8.16919 64.575 8.19183 64.5133C8.21446 64.4516 8.21673 64.3843 8.1983 64.3212C8.17987 64.2582 8.14171 64.2028 8.08948 64.1632C8.07095 64.1496 8.05088 64.1382 8.0297 64.1294Z" fill="#4D8AF0"/>
<path opacity="0.5" d="M10.5 28C10.7761 28 11 27.7761 11 27.5C11 27.2239 10.7761 27 10.5 27C10.2239 27 10 27.2239 10 27.5C10 27.7761 10.2239 28 10.5 28Z" fill="#47E6B1"/>
<path opacity="0.5" d="M6.9913 43.9921C7.53878 43.9921 7.9826 43.5461 7.9826 42.996C7.9826 42.4459 7.53878 42 6.9913 42C6.44382 42 6 42.4459 6 42.996C6 43.5461 6.44382 43.9921 6.9913 43.9921Z" fill="#4D8AF0"/>
<path opacity="0.5" d="M7.49265 20.99C7.76473 20.99 7.98529 20.7684 7.98529 20.495C7.98529 20.2216 7.76473 20 7.49265 20C7.22057 20 7 20.2216 7 20.495C7 20.7684 7.22057 20.99 7.49265 20.99Z" fill="#4D8AF0"/>
</svg>
