<svg width="20" height="21" viewBox="0 0 20 21" fill="none" xmlns="http://www.w3.org/2000/svg">
<path d="M10 13C11.3807 13 12.5 11.8807 12.5 10.5C12.5 9.11929 11.3807 8 10 8C8.61929 8 7.5 9.11929 7.5 10.5C7.5 11.8807 8.61929 13 10 13Z" fill="#F1A159" stroke="#F1A159" stroke-width="2" stroke-linecap="round" stroke-linejoin="round"/>
<path d="M9.99992 17.1667C13.6818 17.1667 16.6666 14.1819 16.6666 10.5C16.6666 6.8181 13.6818 3.83334 9.99992 3.83334C6.31802 3.83334 3.33325 6.8181 3.33325 10.5C3.33325 14.1819 6.31802 17.1667 9.99992 17.1667Z" stroke="#F1A159" stroke-width="2" stroke-linecap="round" stroke-linejoin="round"/>
<path d="M10 2.16667V3.83333" stroke="#F1A159" stroke-width="2" stroke-linecap="round" stroke-linejoin="round"/>
<path d="M10 17.1667V18.8333" stroke="#F1A159" stroke-width="2" stroke-linecap="round" stroke-linejoin="round"/>
<path d="M16.6666 10.5H18.3333" stroke="#F1A159" stroke-width="2" stroke-linecap="round" stroke-linejoin="round"/>
<path d="M1.66663 10.5H3.33329" stroke="#F1A159" stroke-width="2" stroke-linecap="round" stroke-linejoin="round"/>
</svg>
