<svg width="20" height="20" viewBox="0 0 20 20" fill="none" xmlns="http://www.w3.org/2000/svg">
<path d="M10 12.5C11.3807 12.5 12.5 11.3807 12.5 10C12.5 8.61929 11.3807 7.5 10 7.5C8.61929 7.5 7.5 8.61929 7.5 10C7.5 11.3807 8.61929 12.5 10 12.5Z" fill="#3483FA" stroke="#3483FA" stroke-width="2" stroke-linecap="round" stroke-linejoin="round"/>
<path d="M9.99992 16.6663C13.6818 16.6663 16.6666 13.6816 16.6666 9.99967C16.6666 6.31778 13.6818 3.33301 9.99992 3.33301C6.31802 3.33301 3.33325 6.31778 3.33325 9.99967C3.33325 13.6816 6.31802 16.6663 9.99992 16.6663Z" stroke="#3483FA" stroke-width="2" stroke-linecap="round" stroke-linejoin="round"/>
<path d="M10 1.6665V3.33317" stroke="#3483FA" stroke-width="2" stroke-linecap="round" stroke-linejoin="round"/>
<path d="M10 16.6665V18.3332" stroke="#3483FA" stroke-width="2" stroke-linecap="round" stroke-linejoin="round"/>
<path d="M16.6666 10H18.3333" stroke="#3483FA" stroke-width="2" stroke-linecap="round" stroke-linejoin="round"/>
<path d="M1.66663 10H3.33329" stroke="#3483FA" stroke-width="2" stroke-linecap="round" stroke-linejoin="round"/>
</svg>
