<svg width="42" height="42" viewBox="0 0 42 42" fill="none" xmlns="http://www.w3.org/2000/svg">
<path d="M21 42C18.1658 42 15.4137 41.4463 12.8256 40.3512C10.3236 39.293 8.08008 37.7754 6.15234 35.8477C4.22461 33.9199 2.70703 31.6764 1.64883 29.1744C0.553711 26.5863 0 23.8342 0 21C0 20.1838 0.660352 19.5234 1.47656 19.5234C2.29277 19.5234 2.95312 20.1838 2.95312 21C2.95312 23.4363 3.42891 25.7988 4.37227 28.026C5.28281 30.1752 6.58301 32.107 8.24004 33.7641C9.89707 35.4211 11.8289 36.7254 13.9781 37.6318C16.2012 38.5711 18.5637 39.0469 21 39.0469C23.4363 39.0469 25.7988 38.5711 28.026 37.6277C30.1752 36.7172 32.107 35.417 33.7641 33.76C35.4211 32.1029 36.7254 30.1711 37.6318 28.0219C38.5711 25.7988 39.0469 23.4363 39.0469 21C39.0469 18.5637 38.5711 16.2012 37.6277 13.974C36.7203 11.83 35.4069 9.88153 33.76 8.23594C32.1162 6.58677 30.1673 5.27311 28.0219 4.36816C25.7988 3.42891 23.4363 2.95312 21 2.95312C20.1838 2.95312 19.5234 2.29277 19.5234 1.47656C19.5234 0.660352 20.1838 0 21 0C23.8342 0 26.5863 0.553711 29.1744 1.64883C31.6764 2.70703 33.9199 4.22461 35.8477 6.15234C37.7754 8.08008 39.2889 10.3277 40.3471 12.8256C41.4422 15.4137 41.9959 18.1658 41.9959 21C41.9959 23.8342 41.4422 26.5863 40.3471 29.1744C39.293 31.6764 37.7754 33.9199 35.8477 35.8477C33.9199 37.7754 31.6723 39.2889 29.1744 40.3471C26.5863 41.4463 23.8342 42 21 42Z" fill="#96A5B9"/>
</svg>
