<svg width="40" height="40" viewBox="0 0 40 40" fill="none" xmlns="http://www.w3.org/2000/svg">
<circle cx="20" cy="20" r="20" fill="#EAF2FF"/>
<g clip-path="url(#clip0)">
<path d="M8 18.3124V28.4062C8 28.7342 8.2685 28.9999 8.6 28.9999H11.6V17.1249H9.2C8.53738 17.1249 8 17.6567 8 18.3124ZM21.5 16.5312H20.6V15.0468C20.6 14.8828 20.4658 14.7499 20.3 14.7499H19.7C19.5343 14.7499 19.4 14.8828 19.4 15.0468V17.4218C19.4 17.5858 19.5343 17.7187 19.7 17.7187H21.5C21.6658 17.7187 21.8 17.5858 21.8 17.4218V16.828C21.8 16.664 21.6658 16.5312 21.5 16.5312ZM26.6656 14.1577L20.6656 10.1992C20.4685 10.0693 20.2369 9.99992 20 9.99992C19.7631 9.99992 19.5315 10.0693 19.3344 10.1992L13.3344 14.1577C13.17 14.2661 13.0353 14.413 12.9421 14.5853C12.8488 14.7576 12.8 14.95 12.8 15.1455V28.9999H17.6V23.6562C17.6 23.3281 17.8685 23.0624 18.2 23.0624H21.8C22.1315 23.0624 22.4 23.3281 22.4 23.6562V28.9999H27.2V15.1459C27.2 14.7488 26.9994 14.3777 26.6656 14.1577ZM20 19.4999C18.3433 19.4999 17 18.1707 17 16.5312C17 14.8917 18.3433 13.5624 20 13.5624C21.6568 13.5624 23 14.8917 23 16.5312C23 18.1707 21.6568 19.4999 20 19.4999ZM30.8 17.1249H28.4V28.9999H31.4C31.7315 28.9999 32 28.7342 32 28.4062V18.3124C32 17.6567 31.4626 17.1249 30.8 17.1249Z" fill="#3483FA"/>
</g>
<defs>
<clipPath id="clip0">
<rect width="24" height="19" fill="white" transform="translate(8 10)"/>
</clipPath>
</defs>
</svg>
